<svg width="1200" height="1200" viewBox="0 0 1200 1200" fill="none" xmlns="http://www.w3.org/2000/svg">
  <rect width="1200" height="1200" rx="80" fill="transparent"/>
  <defs>
    <linearGradient id="g" x1="260" y1="120" x2="820" y2="910" gradientUnits="userSpaceOnUse">
      <stop stop-color="#1dd6c8"/>
      <stop offset="0.48" stop-color="#0b78a6"/>
      <stop offset="1" stop-color="#071a35"/>
    </linearGradient>
    <linearGradient id="txt" x1="70" y1="890" x2="1120" y2="1060" gradientUnits="userSpaceOnUse">
      <stop stop-color="#10a9a2"/>
      <stop offset="1" stop-color="#082a6d"/>
    </linearGradient>
    <filter id="shadow" x="120" y="40" width="940" height="860" filterUnits="userSpaceOnUse" color-interpolation-filters="sRGB">
      <feDropShadow dx="0" dy="22" stdDeviation="22" flood-color="#04152d" flood-opacity="0.24"/>
    </filter>
  </defs>
  <g filter="url(#shadow)">
    <path d="M260 675C185 490 255 270 440 160C580 77 766 82 908 184C786 172 664 196 558 260C426 339 330 477 300 635C294 665 282 690 260 675Z" fill="url(#g)"/>
    <path d="M361 742C289 543 370 304 570 166C615 135 660 111 705 92C545 238 442 452 430 696C428 746 383 803 361 742Z" fill="#0f88ac"/>
    <path d="M493 801C441 566 535 297 756 111C788 84 822 60 856 40C711 248 648 504 688 760C695 804 509 871 493 801Z" fill="#16c8be"/>
    <path d="M679 770C637 560 704 329 861 153C788 340 782 555 855 744C875 795 696 856 679 770Z" fill="#0f7ba1"/>
    <path d="M780 348C835 387 883 438 918 502C976 608 986 722 955 821C919 733 860 654 786 594C764 576 764 364 780 348Z" fill="#1799ae"/>
    <path d="M747 643C818 650 884 672 936 711C988 749 1016 800 1018 846C906 850 797 838 695 809C619 787 506 739 455 702C543 658 645 634 747 643Z" fill="#c83c30"/>
    <path d="M454 704C545 667 650 655 748 664C850 674 936 711 994 774" stroke="#071a35" stroke-width="22" stroke-linecap="round" opacity="0.75"/>
    <path d="M465 735C540 701 657 692 763 706C850 717 919 746 973 794" stroke="#071a35" stroke-width="15" stroke-linecap="round" opacity="0.55"/>
    <path d="M916 775H1016L1080 828L1034 890H825C792 890 772 853 791 825L833 770L916 775Z" fill="#082a57"/>
    <path d="M843 892C760 894 654 893 548 879C443 864 349 838 297 799" stroke="white" stroke-width="24" stroke-linecap="round"/>
    <path d="M350 906C456 892 548 900 640 920C734 940 839 947 976 928" stroke="#0b78a6" stroke-width="17" stroke-linecap="round"/>
    <path d="M807 127L980 61C1019 46 1058 79 1040 118L1016 169L1077 213L1036 239L981 213L934 260L900 241L942 183L789 164L807 127Z" fill="#073766"/>
    <path d="M771 209C827 174 878 149 946 124" stroke="#20d6d0" stroke-width="18" stroke-linecap="round"/>
    <path d="M870 510L893 500L910 629" stroke="#071a35" stroke-width="11" stroke-linecap="round"/>
  </g>
  <text x="600" y="1030" text-anchor="middle" font-family="Arial Black, Arial, sans-serif" font-size="140" font-weight="900" fill="url(#txt)" letter-spacing="-8">Globall Cloud</text>
  <text x="600" y="1140" text-anchor="middle" font-family="Tahoma, Arial, sans-serif" font-size="86" font-weight="800" fill="#071a35">الفيوم العالمية</text>
</svg>
